<svg xmlns="http://www.w3.org/2000/svg" viewBox="0 0 621.07 122.64"><defs><style>.cls-1{fill:#02bdf5;}</style></defs><g id="Layer_10" data-name="Layer 10"><path class="cls-1" d="M26,110.76c-8.87,0-17.48-2.48-17.48-13.42V79.78c0-10.94,8.61-13.42,17.48-13.42,3.66,0,8.74.44,12.06.7v7.7S30.9,74,26.37,74c-7.93,0-8.94,2.8-8.94,10.05v9c0,7.25.54,10.18,8.94,10.18,2,0,4.4-.13,6.57-.25V92.5H24.4V84.93H41.88v24.88C34.56,110.38,30,110.76,26,110.76Z"/><path class="cls-1" d="M77.31,99.12H59.83L56,110.06H46.56l15.78-43H74.8l15.78,43H81.1Zm-14.77-8h12L68.91,74.76h-.68Z"/><path class="cls-1" d="M115.65,89.9l10.7-22.84H135v43h-8.6V83.73h-.27l-7.79,15.9h-6.1l-7.79-15.9h-.27v26.33H95.6v-43h8.67L115,89.9Z"/><path class="cls-1" d="M144,110.06v-43h28.25v7.5H152.9V84.81H169v7.57H152.9v10.11h19.85v7.57Z"/><path class="cls-1" d="M225.79,100.52c0,5.28-4,9.54-10.3,9.54H193v-43h22.35c6.3,0,10.43,4.26,10.43,9.54Zm-8.87-20.74c0-4-1.49-5.22-5.76-5.22H202v27.93h9.21c4.27,0,5.76-1.21,5.76-5.22Z"/><path class="cls-1" d="M234.26,110.06v-43h28.25v7.5H243.2V84.81h16.12v7.57H243.2v10.11h19.85v7.57Z"/><path class="cls-1" d="M286.08,99.69h.68l10.43-32.63h9.75l-15.78,43h-9.48l-15.79-43h9.76Z"/><path class="cls-1" d="M312.36,110.06v-43h28.25v7.5H321.3V84.81h16.13v7.57H321.3v10.11h19.85v7.57Z"/><path class="cls-1" d="M347.52,110.06v-43h8.94v35.43h18.76v7.57Z"/><path class="cls-1" d="M413,79.78V97.34c0,10-8.26,13.42-17.13,13.42s-17.14-3.37-17.14-13.42V79.78c0-10,8.33-13.42,17.14-13.42S413,69.73,413,79.78Zm-25.33,2.67V94.54c0,6.49,2.84,8.46,8.2,8.46s8.19-1.91,8.19-8.46V82.45c0-6.49-2.84-8.39-8.19-8.39S387.69,76,387.69,82.45Z"/><path class="cls-1" d="M453.39,83.41a9.54,9.54,0,0,1-9.75,9.6H430.91v17H422v-43h21.67a9.49,9.49,0,0,1,9.75,9.54Zm-8.94-4.33c0-3-.81-4.52-5.08-4.52h-8.46V85.44h8.46c4.27,0,5.08-2,5.08-5Z"/><path class="cls-1" d="M479.41,89.9l10.7-22.84h8.67v43h-8.6V83.73h-.27l-7.79,15.9H476l-7.79-15.9H468v26.33h-8.6v-43H468l10.7,22.84Z"/><path class="cls-1" d="M507.72,110.06v-43H536v7.5H516.66V84.81h16.13v7.57H516.66v10.11h19.85v7.57Z"/><path class="cls-1" d="M570.31,110.06,551.82,80.48v29.58h-8.94v-43h8.87L570.31,96.7V67.06h8.94v43Z"/><path class="cls-1" d="M604.86,74.63v35.43h-8.94V74.63H584.13V67.06h32.52v7.57Z"/></g><g id="Layer_12" data-name="Layer 12"><path class="cls-1" d="M236.91,18.8a17.72,17.72,0,0,0-4.76-3.32,15.73,15.73,0,0,0-6.29-1.4A14.55,14.55,0,0,0,211.21,29c0,9.7,8,14.57,14.71,14.57a15.46,15.46,0,0,0,6.78-1.66,16.72,16.72,0,0,0,4.21-3v4.93a19.27,19.27,0,0,1-11,3.48c-10.83,0-18.87-8-18.87-18.37,0-10.66,8.15-18.59,19.09-18.59a17.43,17.43,0,0,1,10.77,3.54Z"/><path class="cls-1" d="M264.47,36.58H248.94l-4.37,10.07h-4.49L256.87,9.21l16.35,37.44h-4.48Zm-1.58-3.75-6.13-14.3-6.23,14.3Z"/><path class="cls-1" d="M282.41,10.92v32h10.06v3.75H278.36V10.92Z"/><path class="cls-1" d="M317.3,10.92c3.66,0,6.73.43,9.19,2.52a9.84,9.84,0,0,1,3.33,7.66c0,5-3.22,10-11.54,10h-3.55V46.65h-4.05V10.92Zm-2.57,16.44h3.33c4.82,0,7.72-2.35,7.72-6.48,0-5.67-5.42-6.21-8-6.21h-3Z"/><path class="cls-1" d="M333.65,28.81c0-10.66,8.48-18.48,19-18.48s19,7.82,19,18.48-8.42,18.48-19,18.48S333.65,39.42,333.65,28.81Zm4.16,0a14.82,14.82,0,1,0,14.82-14.73A14.72,14.72,0,0,0,337.81,28.81Z"/><path class="cls-1" d="M383.09,10.92v32h10.06v3.75H379V10.92Z"/><path class="cls-1" d="M404.47,31.27l-12-20.35h4.71l9.29,16,9.41-16h4.7L408.52,31.27V46.65h-4Z"/><polygon class="cls-1" points="145.18 28.59 192.37 24.85 192.37 32.85 145.18 28.59"/><polygon class="cls-1" points="475.89 28.45 428.69 24.85 428.71 32.85 475.89 28.45"/></g></svg>