<svg xmlns="http://www.w3.org/2000/svg" viewBox="0 0 188.68 277.57"><defs><style>.cls-1{fill:#034877;}</style></defs><title>Artboard 3</title><g id="Layer_7" data-name="Layer 7"><path class="cls-1" d="M182.86,133.22c-6.22-13.79-14.27-26.45-28.59-42.57-4.21-4.73-8.44-9-12.58-12.81a.91.91,0,0,1,0-1.38c4.05-3.62,8.76-6.78,13.45-10.53,4.2-3.37,6.29-4.69,10.28-8.35l0,0a7.6,7.6,0,0,0,2.61-3,2.54,2.54,0,0,0-.1-2.41,1,1,0,0,0-1.34-.26c-2.39,1.62-6.06,3.29-8.81,4.79a74.48,74.48,0,0,1-16.54,6.83c-3,.79-4.29,1.23-10.72,1.65a.76.76,0,0,1-.69-1.18c4.81-7.32,10.89-16.6,15.41-26.8,4.61-10.41,6.85-16.43,9.16-25.12a5.91,5.91,0,0,0-.89-4.93l0-.06-2.21-2.29a.49.49,0,0,0-.81.16,96.24,96.24,0,0,1-17,27.41,96.06,96.06,0,0,1-26.29,20.85l-.63-.69,6.34-10.4a3.84,3.84,0,0,0,.56-1.95v-.34a3.64,3.64,0,0,0-1-2.63c-.2-.19-.38-.37-.56-.53a1,1,0,0,0-1.46.16A117.42,117.42,0,0,1,84.52,63.15a117.46,117.46,0,0,1-28,15.3,6.94,6.94,0,0,0-2.78,2,24.14,24.14,0,0,0-2.58,3.65c-1.32,2.3-2.24,4-1.91,6.08.06.4.36,2.39,1.58,3.17,2.06,1.31,6.62-.9,11-5.92,0,0,.12,0,.09,0a38.56,38.56,0,0,1-11.62,15.37c-3.2,2.5-8.59,7-16,7.25-2.49.07-9.61-.21-13.58-5.59-2.32-3.13-3.54-6.75-3.46-8.45l.56,16.37c.31,1.63,0,8,5.15,13.5a15.8,15.8,0,0,0,11,5,8.05,8.05,0,0,0,1.39-.09c1.42-.18,5.13-2.13,9.63-5.57,3.49-2.67,3.52-3,6.77-5.14a17.13,17.13,0,0,1,4.39-2.23,3.13,3.13,0,0,1,2,.5c2,1,7.36,3.12,13,.73a15.05,15.05,0,0,0,7-6.23h0l.89-1.88c-.24,1.39-2,7.34-5.63,10.44a15.22,15.22,0,0,1-8.83,3.42,18.45,18.45,0,0,1-6.55-.53,3,3,0,0,0-2.09.19,43.79,43.79,0,0,0-7.53,4.67,38.38,38.38,0,0,0-7.74,8.41.42.42,0,0,0,.1.6,14.79,14.79,0,0,1,4.08,4.37,6.49,6.49,0,0,1,1.23,3.87c-.14,1.87-1.68,2.74-1.33,3.42s2.74.54,4.83-.25c2.94-1.12,4.36-3,6.67-5.59a77.44,77.44,0,0,1,10.25-9.58,40.44,40.44,0,0,1,4.9-3.09,13.07,13.07,0,0,1,4-1.3,16.07,16.07,0,0,0,6.27-2.36c4.24-2.74,4.49-5.94,8.5-7.42,1.44-.53,2.26-.43,7.34-.16l11,.12a.28.28,0,0,0,.26-.37l-1.73-4.34c-.44-1.11,1.92,1.53,2.83,2.3a29.73,29.73,0,0,0,4.17,2.75l4.79,2.66c.85.65,0,1.62-1.08,1.63-2.89,0-7.2,0-10.21-.09-4.55-.08-9-.25-13.23-.5h0a6.4,6.4,0,0,0-4.06,1.67,12.81,12.81,0,0,0-2,2.66c-.24.52.15.93.56,1.34,3.12,3.13,10.75,4.13,18.62,11.58,4.36,4.13,13.7,14.78,11,26a18.09,18.09,0,0,1-6.5,10c-8.6,6.5-19.79,2-20.5,1.67l15,6.56a33.86,33.86,0,0,0,8.47-.68c15.86-3.5,20.6-15,21.09-16.39,2.58-7.43,1.82-14.24.6-23.34a138.66,138.66,0,0,0-5.69-23.15,93.75,93.75,0,0,1,20.77,28.79c3.41,7.7,6.89,15.45,4.73,28.46A46,46,0,0,1,145,202.53l19.26,8.4.65-.31c6.44-24.44,10.4-49,16.84-73.47C181.74,137,182.87,133.33,182.86,133.22ZM35.6,122.4c-1,1.48-3.93,1.34-5.75.58-3.06-1.27-4.16-5.24-4.29-5.77a14.19,14.19,0,0,0,1.79,1.36,8.61,8.61,0,0,0,3.25.91c1.81,0,2.22-1.1,3.58-.75a2.62,2.62,0,0,1,1.67,1.34A2.46,2.46,0,0,1,35.6,122.4Z"/><path class="cls-1" d="M116.81,188c-7.82-3.52-19.12-8.66-35.21-14.26-3.44-1.19-5.16-1.76-6.29-2.12-19.05-6-35.63-8.53-46.88-8.86a30.28,30.28,0,0,0-8.62.24c-2.71.48-3,1.3-3,1.5-.23,1,1.33,2.14,2,2.62,6,4.34,11.92,8.85,18,13.13a35.53,35.53,0,0,1,10.45,11.8,4.41,4.41,0,0,1,.2,4,30.37,30.37,0,0,1-5.53,8.32c-7.78,8.31-17.9,9.6-21,9.88l5.12,4.13a44.76,44.76,0,0,0,12.26-3.63,37.05,37.05,0,0,0,15.62-13.5,48.61,48.61,0,0,1-.33,20.81,93.63,93.63,0,0,1-4.77,14.76l39.6,32,70.63-57.25-.77-5.47C139.94,198.31,126.7,192.47,116.81,188Zm13.75,32a85.72,85.72,0,0,1-20.63,14.5,56.83,56.83,0,0,0-6.12-12.75,57.44,57.44,0,0,0-11.5-13,32.26,32.26,0,0,1,7.12,17.75,31.93,31.93,0,0,1-1.64,12.81,6.2,6.2,0,0,1-4.11,3.91l-3.16.93a.26.26,0,0,1-.34-.25,80,80,0,0,0-8.62-36.15C70,185,50.72,174.75,43.93,171.53a434.24,434.24,0,0,1,43.13,13.12,438.18,438.18,0,0,1,53.75,23.63A86.08,86.08,0,0,1,130.56,220Z"/><path class="cls-1" d="M172.75,133.48l-8.52,70L86.43,261.9,21.6,214.21c-6.15.41-11.19-.08-14.73.52L83,271.84a5.73,5.73,0,0,0,6.83,0l81.86-61.52a5.69,5.69,0,0,0,2.22-3.86l8.9-73Z"/></g></svg>