<svg xmlns="http://www.w3.org/2000/svg" viewBox="0 0 226.81 272.15"><defs><style>.cls-1{fill:#02bdf5;}</style></defs><title>Artboard 2</title><g id="Layer_10" data-name="Layer 10"><path class="cls-1" d="M209.83,130.51c-6.22-13.79-14.27-26.45-28.59-42.57-4.21-4.73-8.44-9-12.58-12.81a.91.91,0,0,1,0-1.38c4-3.62,8.75-6.78,13.44-10.53,4.2-3.37,6.29-4.69,10.28-8.35l0,0a7.55,7.55,0,0,0,2.61-3,2.52,2.52,0,0,0-.1-2.4,1,1,0,0,0-1.34-.26c-2.39,1.62-6.06,3.29-8.81,4.79a74.48,74.48,0,0,1-16.54,6.83c-3,.79-4.29,1.23-10.72,1.65a.76.76,0,0,1-.69-1.18c4.82-7.32,10.89-16.6,15.41-26.8C176.85,24,179.09,18,181.4,9.32a5.93,5.93,0,0,0-.89-4.94l0,0L178.25,2a.49.49,0,0,0-.81.16,96.51,96.51,0,0,1-17,27.41,96.25,96.25,0,0,1-26.29,20.85l-.63-.69,6.34-10.4a3.84,3.84,0,0,0,.56-1.95v-.34a3.64,3.64,0,0,0-1-2.63c-.2-.19-.38-.38-.56-.54a1,1,0,0,0-1.45.17,117.72,117.72,0,0,1-25.85,26.36,117,117,0,0,1-28,15.29,6.84,6.84,0,0,0-2.77,2,23.6,23.6,0,0,0-2.59,3.65c-1.32,2.3-2.24,4-1.91,6.08.06.4.36,2.39,1.58,3.17,2.06,1.31,6.62-.9,11-5.92,0,0,.12,0,.09,0a38.63,38.63,0,0,1-11.62,15.37c-3.2,2.5-8.59,7-16,7.25-2.49.07-9.61-.21-13.58-5.59-2.32-3.13-3.54-6.76-3.46-8.46l.56,16.38c.31,1.62,0,8,5.15,13.5a15.8,15.8,0,0,0,11,5,7.13,7.13,0,0,0,1.38-.1c1.42-.17,5.13-2.12,9.63-5.56,3.49-2.67,3.52-3,6.77-5.14a17.13,17.13,0,0,1,4.39-2.23,3.18,3.18,0,0,1,2,.49c2,1,7.36,3.13,13,.74a15,15,0,0,0,7-6.24h0s.89-1.87.89-1.87c-.24,1.38-2,7.33-5.63,10.44a15.29,15.29,0,0,1-8.83,3.42,18.45,18.45,0,0,1-6.55-.53,3,3,0,0,0-2.09.19,43.79,43.79,0,0,0-7.53,4.67,38.59,38.59,0,0,0-7.74,8.4.44.44,0,0,0,.1.61,14.91,14.91,0,0,1,4.08,4.36,6.45,6.45,0,0,1,1.23,3.88c-.14,1.87-1.68,2.74-1.33,3.42s2.74.54,4.83-.25c2.94-1.12,4.36-3,6.67-5.59a76.75,76.75,0,0,1,10.25-9.58,38.1,38.1,0,0,1,4.9-3.09,13.07,13.07,0,0,1,4-1.3,16.07,16.07,0,0,0,6.27-2.36c4.24-2.75,4.49-5.94,8.5-7.42,1.44-.53,2.26-.43,7.34-.16l11,.12a.28.28,0,0,0,.26-.38l-1.73-4.33c-.44-1.11,1.92,1.52,2.83,2.29a27.93,27.93,0,0,0,4.17,2.75l4.79,2.67c.85.65,0,1.62-1.08,1.63-2.89,0-7.2,0-10.21-.09-4.55-.08-9-.26-13.23-.5h0a6.4,6.4,0,0,0-4.06,1.67,12.55,12.55,0,0,0-2,2.66c-.24.52.15.93.56,1.34,3.12,3.12,10.75,4.12,18.62,11.58,4.36,4.13,13.7,14.78,11,26a18.09,18.09,0,0,1-6.5,10c-8.6,6.5-19.79,2-20.5,1.67l15,6.55a33.4,33.4,0,0,0,8.47-.68c15.86-3.5,20.6-14.95,21.09-16.38,2.58-7.43,1.82-14.24.6-23.34a138.66,138.66,0,0,0-5.69-23.15,93.92,93.92,0,0,1,20.78,28.79c3.4,7.7,6.88,15.44,4.72,28.46A46,46,0,0,1,172,199.81l19.26,8.41.65-.31c6.44-24.44,10.4-49,16.84-73.47C208.71,134.33,209.84,130.62,209.83,130.51ZM62.57,119.69c-1,1.48-3.93,1.34-5.75.58-3.06-1.27-4.16-5.24-4.29-5.77a14.19,14.19,0,0,0,1.79,1.36,8.61,8.61,0,0,0,3.25.91c1.81,0,2.22-1.1,3.58-.75a2.62,2.62,0,0,1,1.67,1.34A2.47,2.47,0,0,1,62.57,119.69Z"/><path class="cls-1" d="M191.2,200.72l-77.8,58.46L35.61,200.72,14.55,27.94H151.9a97.68,97.68,0,0,0,7.51-10H9.68A5.7,5.7,0,0,0,4,24.32L25.9,203.75h0a5.67,5.67,0,0,0,2.23,3.85L110,269.13a5.71,5.71,0,0,0,6.83,0l81.86-61.51a5.71,5.71,0,0,0,2.22-3.86l8.9-73H199.72Z"/><path class="cls-1" d="M221.39,19.86a5.71,5.71,0,0,0-4.27-1.92H188.53c-1.07,3.19-2.28,6.36-3.79,10h27.52l-9.12,74.79c3.25,4.34,6.05,8.51,8.54,12.63l11.09-91A5.69,5.69,0,0,0,221.39,19.86Z"/><path class="cls-1" d="M143.78,185.31c-7.82-3.51-19.12-8.65-35.21-14.25-3.44-1.19-5.16-1.77-6.29-2.12-19-6-35.63-8.53-46.88-8.86a30.05,30.05,0,0,0-8.62.23c-2.71.48-3,1.31-3,1.5-.23,1,1.33,2.15,2,2.63,6,4.34,11.92,8.85,18,13.12a35.69,35.69,0,0,1,10.45,11.81,4.41,4.41,0,0,1,.2,4,30.37,30.37,0,0,1-5.53,8.32c-7.78,8.31-17.9,9.6-21,9.87L53,215.7a44.47,44.47,0,0,0,12.26-3.64,36.92,36.92,0,0,0,15.62-13.5,48.66,48.66,0,0,1-.33,20.82,94.31,94.31,0,0,1-4.77,14.76l39.6,32.05L186,208.94l-.76-5.47C166.91,195.6,153.67,189.76,143.78,185.31Zm13.75,32a85.43,85.43,0,0,1-20.63,14.5,57.1,57.1,0,0,0-17.62-25.75,32.34,32.34,0,0,1,7.12,17.75,31.9,31.9,0,0,1-1.64,12.81,6.16,6.16,0,0,1-4.11,3.91l-3.16.93a.26.26,0,0,1-.34-.24,80.08,80.08,0,0,0-8.62-36.16C96.94,182.3,77.69,172,70.9,168.81A437.13,437.13,0,0,1,114,181.94a438.23,438.23,0,0,1,53.75,23.62A84.91,84.91,0,0,1,157.53,217.31Z"/></g></svg>