<svg xmlns="http://www.w3.org/2000/svg" viewBox="0 0 408.57 153.19"><defs><style>.cls-1{fill:#007ab0;}</style></defs><title>Artboard 9</title><g id="Layer_12" data-name="Layer 12"><path class="cls-1" d="M96.58,130.66c-8,.64-20.58,1.76-29.4,1.76-21.39,0-42.13-6.24-42.13-33.75V54.52c0-27.51,20.74-33.75,42.13-33.75,8.82,0,21.07,1.12,29.07,1.76V41.89S79.1,40,68.16,40C49.05,40,46.6,47,46.6,65.24V87.79c0,18.24,1.31,25.6,21.56,25.6,10.94,0,28.42-1.92,28.42-1.92Z"/><path class="cls-1" d="M245.36,132.42c-21.4,0-42.14-6.24-42.14-33.75V54.52c0-27.51,20.74-33.75,42.14-33.75,8.82,0,21.06,1.12,29.07,1.76V41.89S257.28,40,246.34,40c-19.11,0-21.56,7-21.56,25.27V87.79c0,18.24,1.31,25.6,21.56,25.6,4.73,0,10.61-.32,15.84-.64V86.51H241.6v-19h42.14V130C266.1,131.46,255.16,132.42,245.36,132.42Z"/><path class="cls-1" d="M165.33,22.53H113.07V41.4h42c10.29,0,12.25,3.84,12.25,11.36v3.52c0,7.52-2,12.48-12.25,12.48H134.63V55.08H113.07v75.58h21.56V87.79h30.7c13.56,0,23.52-10.87,23.52-24.15V46.52C188.85,33.25,178.89,22.53,165.33,22.53Z"/><path class="cls-1" d="M358.37,22.53H304.48V41.4h43.77c10.29,0,13.88,3,13.88,13.12v44c0,10.08-3.59,13.12-13.88,13.12H326V55.08H304.48v75.58H358.7c15.19,0,24.82-10.72,24.82-24V46.52C383.52,33.25,373.56,22.53,358.37,22.53Z"/></g></svg>